<?xml version="1.0" encoding="UTF-8"?>
<svg height="16px" viewBox="0 0 16 16" width="16px" xmlns="http://www.w3.org/2000/svg">
    <path d="m 5 2 v 1 h 2 v 1 h -3 c -0.65625 0 -1 0.390625 -1 1 v 3 h -1 v -2 h -1 v 6 h 1 v -2 h 1 v 3 c 0 0.484375 0.515625 1 1 1 h 8 c 0.578125 0 1 -0.546875 1 -1.046875 v -0.953125 l 1 1 h 1 v -8 h -1.050781 l -0.949219 1 v -1 c 0 -0.515625 -0.390625 -1 -1 -1 h -3 v -1 h 2 v -1 z m 3.78125 3 c 0.082031 -0.011719 0.167969 -0.011719 0.25 0 h 0.0625 h 0.9375 v 0.78125 v 0.09375 c 0.039062 0.304688 -0.066406 0.625 -0.28125 0.84375 l -1.3125 1.28125 h 2.5625 v 0.875 c 0.003906 0.042969 0.003906 0.082031 0 0.125 c 0.007812 0.265625 -0.097656 0.527344 -0.28125 0.71875 l -3 3 c -0.191406 0.183594 -0.453125 0.285156 -0.71875 0.28125 h -1 v -0.78125 c 0 -0.03125 0 -0.0625 0 -0.09375 c -0.039062 -0.304688 0.066406 -0.625 0.28125 -0.84375 l 1.1875 -1.28125 h -2.46875 v -0.8125 c -0.0625 -0.324219 0.046875 -0.675781 0.28125 -0.90625 l 3.03125 -3 c 0.125 -0.132812 0.289062 -0.230469 0.46875 -0.28125 z m 0 0"/>
</svg>
