<?xml version="1.0" encoding="UTF-8"?>
<svg height="16px" viewBox="0 0 16 16" width="16px" xmlns="http://www.w3.org/2000/svg">
    <path d="m 3 0 c 1.644531 0 3 1.355469 3 3 v 1 h -2 v -1 c 0 -0.5625 -0.4375 -1 -1 -1 s -1 0.4375 -1 1 v 5.542969 c 0.589844 -0.34375 1.273438 -0.542969 2 -0.542969 c 2.199219 0 4 1.800781 4 4 s -1.800781 4 -4 4 s -4 -1.800781 -4 -4 v -9 c 0 -1.644531 1.355469 -3 3 -3 z m 5 12 c 0 -2.199219 1.800781 -4 4 -4 c 0.175781 0 0.34375 0.011719 0.511719 0.035156 l -2.125 -5.109375 c -0.21875 -0.523437 -0.789063 -0.757812 -1.3125 -0.539062 c -0.519531 0.214843 -0.753907 0.785156 -0.535157 1.304687 l 0.386719 0.925782 l -1.851562 0.769531 l -0.382813 -0.925781 c -0.632812 -1.519532 0.097656 -3.289063 1.617188 -3.921876 c 1.519531 -0.632812 3.289062 0.097657 3.921875 1.617188 l 3.460937 8.304688 h -0.003906 c 0.203125 0.472656 0.3125 0.996093 0.3125 1.539062 c 0 2.199219 -1.800781 4 -4 4 s -4 -1.800781 -4 -4 z m 4 -2 c -1.117188 0 -2 0.882812 -2 2 s 0.882812 2 2 2 s 2 -0.882812 2 -2 c 0 -0.273438 -0.054688 -0.535156 -0.152344 -0.769531 h -0.003906 l -0.035156 -0.085938 c -0.316406 -0.679687 -1 -1.144531 -1.808594 -1.144531 z m -8 0 c -1.117188 0 -2 0.882812 -2 2 s 0.882812 2 2 2 s 2 -0.882812 2 -2 s -0.882812 -2 -2 -2 z m 0 0"/>
    <path d="m 9.320312 9.210938 c -0.132812 0.011718 -0.253906 0.078124 -0.339843 0.179687 c -0.25 0.300781 -0.621094 0.46875 -1.011719 0.457031 c -0.390625 -0.007812 -0.753906 -0.195312 -0.988281 -0.507812 c -0.167969 -0.222656 -0.480469 -0.265625 -0.699219 -0.101563 c -0.109375 0.082031 -0.179688 0.199219 -0.199219 0.332031 c -0.015625 0.132813 0.019531 0.265626 0.097657 0.371094 c 0.417968 0.554688 1.070312 0.890625 1.765624 0.90625 c 0.691407 0.019532 1.359376 -0.285156 1.804688 -0.820312 c 0.175781 -0.210938 0.148438 -0.523438 -0.0625 -0.703125 c -0.105469 -0.082031 -0.234375 -0.125 -0.367188 -0.113281 z m 0 0"/>
    <path d="m 6 10 h 4 v 5 h -4 z m 0 0"/>
</svg>
