<?xml version="1.0" encoding="UTF-8"?>
<svg height="16px" viewBox="0 0 16 16" width="16px" xmlns="http://www.w3.org/2000/svg" xmlns:xlink="http://www.w3.org/1999/xlink">
    <filter id="a" height="100%" width="100%" x="0%" y="0%">
        <feColorMatrix color-interpolation-filters="sRGB" values="0 0 0 0 1 0 0 0 0 1 0 0 0 0 1 0 0 0 1 0"/>
    </filter>
    <mask id="b">
        <g filter="url(#a)">
            <rect fill-opacity="0.8" height="19.2" width="19.2" x="-1.6" y="-1.6"/>
        </g>
    </mask>
    <linearGradient id="c" gradientUnits="userSpaceOnUse" x1="32" x2="96" y1="77" y2="77">
        <stop offset="0" stop-color="#ed333b"/>
        <stop offset="1" stop-color="#5d5ae3"/>
    </linearGradient>
    <clipPath id="d">
        <rect height="152" width="192"/>
    </clipPath>
    <path d="m 4.707031 2.484375 c -0.9375 -0.019531 -1.707031 0.730469 -1.707031 1.664063 v 7.703124 c 0 1.28125 1.390625 2.082032 2.5 1.441407 l 6.667969 -3.847657 c 1.109375 -0.644531 1.109375 -2.246093 0 -2.890624 l -6.667969 -3.847657 c -0.242188 -0.140625 -0.515625 -0.214843 -0.792969 -0.222656 z m 0 0" fill="#3d3846" fill-rule="evenodd"/>
    <g mask="url(#b)">
        <g clip-path="url(#d)" transform="matrix(1 0 0 1 -168 -16)">
            <path d="m 96 73 c 2.214844 0 4 1.785156 4 4 s -1.785156 4 -4 4 s -4 -1.785156 -4 -4 s 1.785156 -4 4 -4 z m -60 0 c 2.214844 0 4 1.785156 4 4 s -1.785156 4 -4 4 s -4 -1.785156 -4 -4 s 1.785156 -4 4 -4 z m 48 0 c 2.214844 0 4 1.785156 4 4 s -1.785156 4 -4 4 s -4 -1.785156 -4 -4 s 1.785156 -4 4 -4 z m -12 -9 c 2.214844 0 4 1.785156 4 4 v 18 c 0 2.214844 -1.785156 4 -4 4 s -4 -1.785156 -4 -4 v -18 c 0 -2.214844 1.785156 -4 4 -4 z m -12 -12 c 2.214844 0 4 1.785156 4 4 v 42 c 0 2.214844 -1.785156 4 -4 4 s -4 -1.785156 -4 -4 v -42 c 0 -2.214844 1.785156 -4 4 -4 z m -12 18 c 2.214844 0 4 1.785156 4 4 v 6 c 0 2.214844 -1.785156 4 -4 4 s -4 -1.785156 -4 -4 v -6 c 0 -2.214844 1.785156 -4 4 -4 z m 0 0" fill="url(#c)"/>
        </g>
    </g>
</svg>
